#N canvas 153 35 1209 640 12;
#N canvas 446 240 665 339 logomedia 0;
#X obj 219 148 image logomedia.gif;
#X obj 130 136 knob 24 24 0 127 0 0 121 medialogo empty 0 -8 0 8 -259028
-259156 -1 127 1;
#X obj 396 260 s medialogo;
#X obj 396 216 counter 2 1 127;
#X obj 396 103 random 10;
#X obj 396 170 tgl 15 0 empty empty empty 17 7 0 10 -262144 -1 -1 0
1;
#X obj 396 190 metro 20;
#X msg 396 149 1;
#X obj 396 60 tgl 15 0 empty empty empty 17 7 0 10 -262144 -1 -1 1
1;
#X floatatom 477 123 5 0 0 0 - - -;
#X obj 396 127 moses 5;
#X msg 436 149 0;
#X obj 396 80 metro 200;
#X obj 396 18 loadbang;
#X msg 396 40 1;
#X obj 477 144 * 10;
#X floatatom 477 166 5 0 0 0 - - -;
#X obj 477 187 + 200;
#X obj 396 238 smooth 0.5;
#X connect 3 0 18 0;
#X connect 4 0 9 0;
#X connect 4 0 10 0;
#X connect 5 0 6 0;
#X connect 6 0 3 0;
#X connect 7 0 5 0;
#X connect 8 0 12 0;
#X connect 9 0 15 0;
#X connect 10 0 7 0;
#X connect 10 1 11 0;
#X connect 11 0 5 0;
#X connect 12 0 4 0;
#X connect 13 0 14 0;
#X connect 14 0 8 0;
#X connect 15 0 16 0;
#X connect 16 0 17 0;
#X connect 17 0 12 1;
#X connect 18 0 2 0;
#X coords 0 -1 1 1 250 100 2 100 100;
#X restore 92 52 pd logomedia;
#X obj 618 55 route /wii/1/accel/pry/0;
#X obj 579 539 sendOSC;
#X msg 372 493 disconnect;
#X msg 579 506 send /1/fader1 \$1;
#X obj 618 30 dumpOSC 9000;
#X floatatom 579 272 5 0 0 0 - - -;
#X obj 579 244 smooth 0.15;
#X obj 521 321 print;
#X floatatom 667 244 5 0 0 0 - - -;
#X floatatom 579 335 8 0 0 0 - - -;
#X obj 652 171 loadbang;
#X obj 656 222 hsl 65 15 0 1 0 0 empty empty empty -2 -8 0 10 -262144
-1 -1 5952 1;
#X obj 582 310 hsl 65 15 0 1 0 0 empty empty empty -2 -8 0 10 -262144
-1 -1 1182 1;
#X obj 621 91 hsl 65 15 0 1 0 0 empty empty empty -2 -8 0 10 -262144
-1 -1 3337 1;
#X obj 521 290 gate 1;
#X obj 521 269 tgl 15 0 empty empty empty 17 7 0 10 -262144 -1 -1 0
1;
#X obj 582 420 hsl 65 15 0 1 0 0 empty empty empty -2 -8 0 10 -262144
-1 -1 558 1;
#X msg 372 458 connect 192.168.0.101 5000;
#X floatatom 579 474 5 0 0 0 - - -;
#X msg 652 196 0.93;
#X obj 579 377 exponential_sigmoid;
#X obj 713 327 hsl 50 15 0 1 0 1 \$0-x-slider \$0-x-slider-receive
x 5 9 0 11 -232576 -1 -1 2793 0;
#X floatatom 710 347 7 0 0 0 - - -;
#X msg 710 300 0.57;
#X obj 710 274 loadbang;
#X obj 452 58 route /wii/1/button/B;
#X obj 452 105 tgl 15 0 empty empty empty 17 7 0 10 -262144 -1 -1 0
1;
#X obj 579 120 gate 1;
#X obj 452 232 line 1 100;
#X floatatom 452 263 5 0 0 0 - - -;
#X obj 413 302 gate 1;
#X floatatom 413 334 5 0 0 0 - - -;
#X obj 388 151 * -1;
#X obj 388 176 + 1;
#X floatatom 388 201 5 0 0 0 - - -;
#X obj 452 129 sel 0;
#X msg 452 154 0;
#X obj 499 356 s line;
#X obj 494 156 r line;
#X msg 452 202 \$1 490;
#X connect 1 0 14 0;
#X connect 3 0 2 0;
#X connect 4 0 2 0;
#X connect 5 0 1 0;
#X connect 5 0 26 0;
#X connect 6 0 13 0;
#X connect 6 0 15 1;
#X connect 7 0 6 0;
#X connect 10 0 38 0;
#X connect 10 0 21 0;
#X connect 11 0 20 0;
#X connect 12 0 7 1;
#X connect 12 0 9 0;
#X connect 13 0 10 0;
#X connect 14 0 28 1;
#X connect 15 0 8 0;
#X connect 16 0 15 0;
#X connect 17 0 19 0;
#X connect 18 0 2 0;
#X connect 19 0 4 0;
#X connect 20 0 12 0;
#X connect 21 0 17 0;
#X connect 22 0 21 1;
#X connect 22 0 23 0;
#X connect 24 0 22 0;
#X connect 25 0 24 0;
#X connect 26 0 27 0;
#X connect 27 0 28 0;
#X connect 27 0 33 0;
#X connect 27 0 36 0;
#X connect 28 0 7 0;
#X connect 29 0 30 0;
#X connect 30 0 31 1;
#X connect 31 0 32 0;
#X connect 33 0 34 0;
#X connect 34 0 35 0;
#X connect 35 0 31 0;
#X connect 36 0 37 0;
#X connect 37 0 40 0;
#X connect 39 0 40 0;
#X connect 40 0 29 0;
