#N canvas 153 35 1209 640 12;
#N canvas 446 240 665 339 logomedia 0;
#X obj 219 148 image logomedia.gif;
#X obj 130 136 knob 24 24 0 127 0 0 121 medialogo empty 0 -8 0 8 -259028
-259156 -1 2264 1;
#X obj 396 260 s medialogo;
#X obj 396 216 counter 2 1 127;
#X obj 396 103 random 10;
#X obj 396 170 tgl 15 0 empty empty empty 17 7 0 10 -262144 -1 -1 1
1;
#X obj 396 190 metro 20;
#X msg 396 149 1;
#X obj 396 60 tgl 15 0 empty empty empty 17 7 0 10 -262144 -1 -1 1
1;
#X floatatom 477 123 5 0 0 0 - - -;
#X obj 396 127 moses 5;
#X msg 436 149 0;
#X obj 396 80 metro 200;
#X obj 396 18 loadbang;
#X msg 396 40 1;
#X obj 477 144 * 10;
#X floatatom 477 166 5 0 0 0 - - -;
#X obj 477 187 + 200;
#X obj 396 238 smooth 0.5;
#X connect 3 0 18 0;
#X connect 4 0 9 0;
#X connect 4 0 10 0;
#X connect 5 0 6 0;
#X connect 6 0 3 0;
#X connect 7 0 5 0;
#X connect 8 0 12 0;
#X connect 9 0 15 0;
#X connect 10 0 7 0;
#X connect 10 1 11 0;
#X connect 11 0 5 0;
#X connect 12 0 4 0;
#X connect 13 0 14 0;
#X connect 14 0 8 0;
#X connect 15 0 16 0;
#X connect 16 0 17 0;
#X connect 17 0 12 1;
#X connect 18 0 2 0;
#X coords 0 -1 1 1 250 100 2 100 100;
#X restore 92 52 pd logomedia;
#X obj 579 55 route /wii/1/accel/pry/0;
#X obj 579 529 sendOSC;
#X msg 372 463 disconnect;
#X msg 579 496 send /1/fader1 \$1;
#X obj 579 30 dumpOSC 9000;
#X floatatom 579 212 5 0 0 0 - - -;
#X obj 579 184 smooth 0.15;
#X obj 521 261 print;
#X floatatom 667 184 5 0 0 0 - - -;
#X floatatom 579 272 8 0 0 0 - - -;
#X obj 698 280 hsl 50 15 0 1 0 0 \$0-x-slider \$0-x-slider-receive
x 5 9 0 11 -232576 -1 -1 1000 0;
#X floatatom 707 301 7 0 0 0 - - -;
#X obj 579 329 exponential_curve;
#X obj 652 111 loadbang;
#X obj 656 162 hsl 65 15 0 1 0 0 empty empty empty -2 -8 0 10 -262144
-1 -1 5952 1;
#X obj 582 250 hsl 65 15 0 1 0 0 empty empty empty -2 -8 0 10 -262144
-1 -1 3007 1;
#X obj 695 227 loadbang;
#X msg 695 252 0.59;
#X obj 602 81 hsl 65 15 0 1 0 0 empty empty empty -2 -8 0 10 -262144
-1 -1 3006 1;
#X obj 521 230 gate 1;
#X obj 521 209 tgl 15 0 empty empty empty 17 7 0 10 -262144 -1 -1 0
1;
#X obj 582 360 hsl 65 15 0 1 0 0 empty empty empty -2 -8 0 10 -262144
-1 -1 4702 1;
#X msg 372 428 connect 192.168.0.101 5000;
#X floatatom 579 444 5 0 0 0 - - -;
#X msg 769 252 0.55;
#X msg 828 251 0.54;
#X msg 652 136 0.93;
#X obj 802 317 exponential_sigmoid;
#X obj 916 267 hsl 50 15 0 1 0 1 \$0-x-slider \$0-x-slider-receive
x 5 9 0 11 -232576 -1 -1 2600 0;
#X floatatom 922 287 7 0 0 0 - - -;
#X msg 984 255 0.58;
#X obj 579 468 smooth 0.15;
#X obj 659 436 hsl 65 15 0 1 0 0 empty empty empty -2 -8 0 10 -262144
-1 -1 800 1;
#X floatatom 671 461 5 0 0 0 - - -;
#X msg 655 406 0.125;
#X connect 1 0 7 0;
#X connect 1 0 19 0;
#X connect 3 0 2 0;
#X connect 4 0 2 0;
#X connect 5 0 1 0;
#X connect 6 0 16 0;
#X connect 6 0 20 1;
#X connect 7 0 6 0;
#X connect 10 0 13 0;
#X connect 11 0 12 0;
#X connect 11 0 13 1;
#X connect 13 0 22 0;
#X connect 14 0 27 0;
#X connect 15 0 7 1;
#X connect 15 0 9 0;
#X connect 16 0 10 0;
#X connect 17 0 18 0;
#X connect 18 0 11 0;
#X connect 20 0 8 0;
#X connect 21 0 20 0;
#X connect 22 0 24 0;
#X connect 23 0 2 0;
#X connect 24 0 32 0;
#X connect 25 0 11 0;
#X connect 26 0 11 0;
#X connect 27 0 15 0;
#X connect 29 0 28 1;
#X connect 29 0 30 0;
#X connect 31 0 28 1;
#X connect 32 0 4 0;
#X connect 33 0 32 1;
#X connect 33 0 34 0;
#X connect 35 0 33 0;
