#N canvas 223 175 450 300 10;
#X obj -455 -259 unpack f f f f f;
#X obj -432 -201 + 5.33;
#X obj -409 -152 * -8;
#X obj -409 -130 + 4;
#X obj -432 -223 * -10.66;
#X obj -455 -283 inlet;
#X obj -432 -103 outlet;
#X obj -385 -103 outlet;
#X text -270 -194 measures converter;
#X connect 0 1 4 0;
#X connect 0 2 2 0;
#X connect 1 0 6 0;
#X connect 2 0 3 0;
#X connect 3 0 7 0;
#X connect 4 0 1 0;
#X connect 5 0 0 0;
