#N canvas 729 41 752 712 10;
#X msg 70 119 dimen 800 600;
#X obj 170 171 gemwin;
#X obj 170 132 tgl 15 0 empty empty empty 17 7 0 10 -262144 -1 -1 1
1;
#X msg 211 133 create;
#X msg 273 135 destroy;
#X obj 163 349 pix_freenect 0 1 1;
#X obj 53 423 pix_texture;
#X obj 142 262 hradio 15 1 0 3 empty empty empty 0 -8 0 10 -262144
-1 -1 1;
#X msg 142 282 depth_mode \$1;
#X obj 53 445 rectangle 5.33 4;
#X obj 181 418 tgl 15 0 empty empty empty 17 7 0 10 -262144 -1 -1 1
1;
#X obj 181 438 metro 100;
#X obj 251 460 pix_data;
#X obj 273 493 unpack f f f;
#X obj 241 531 * 65536;
#X obj 241 553 +;
#X obj 241 575 / 1000;
#X obj 241 597 s d;
#X obj 301 531 * 256;
#X obj 343 330 gemmouse 1 1;
#X obj 323 362 t f f;
#X obj 343 397 s x;
#X obj 395 364 * -1;
#X obj 395 386 + 1;
#X obj 395 408 t f f;
#X obj 417 439 s y;
#X obj 163 327 gemhead 50;
#X obj 268 324 gemhead 50;
#X obj 514 248 gemhead 55;
#X obj 514 350 translateXYZ;
#X obj 514 452 text2d;
#X obj 547 280 r x;
#X obj 547 302 * 10.66;
#X obj 547 324 - 5.33;
#X floatatom 546 418 5 0 0 0 - - -;
#X msg 467 420 text \$1;
#X obj 467 398 r d;
#X obj 607 280 r y;
#X obj 607 302 * 8;
#X obj 607 324 - 4;
#X connect 0 0 1 0;
#X connect 2 0 1 0;
#X connect 3 0 1 0;
#X connect 4 0 1 0;
#X connect 5 0 6 0;
#X connect 5 1 12 1;
#X connect 6 0 9 0;
#X connect 7 0 8 0;
#X connect 8 0 5 0;
#X connect 10 0 11 0;
#X connect 11 0 12 0;
#X connect 12 1 13 0;
#X connect 13 0 14 0;
#X connect 13 1 18 0;
#X connect 14 0 15 0;
#X connect 15 0 16 0;
#X connect 16 0 17 0;
#X connect 18 0 15 1;
#X connect 19 0 20 0;
#X connect 19 1 22 0;
#X connect 20 0 12 2;
#X connect 20 1 21 0;
#X connect 22 0 23 0;
#X connect 23 0 24 0;
#X connect 24 0 12 3;
#X connect 24 1 25 0;
#X connect 26 0 5 0;
#X connect 27 0 5 1;
#X connect 28 0 29 0;
#X connect 29 0 30 0;
#X connect 31 0 32 0;
#X connect 32 0 33 0;
#X connect 33 0 29 1;
#X connect 34 0 30 1;
#X connect 35 0 30 0;
#X connect 36 0 35 0;
#X connect 37 0 38 0;
#X connect 38 0 39 0;
#X connect 39 0 29 2;
