#N canvas 787 142 765 602 10;
#X msg 18 164 dimen 800 600;
#X obj 18 246 gemwin;
#X obj 27 194 tgl 15 0 empty empty empty 17 7 0 10 -262144 -1 -1 1
1;
#X msg 62 196 create;
#X msg 122 196 destroy;
#X obj 241 98 tgl 15 0 empty empty empty 17 7 0 10 -262144 -1 -1 1
1;
#X obj 341 134 pix_openni 0 1 1 0 1;
#X obj 458 102 gemhead 50;
#X obj 341 102 gemhead 50;
#X obj 341 156 pix_texture;
#X obj 341 178 rectangle 5.33 4;
#X msg 241 118 skeleton \$1;
#X obj 458 176 route joint;
#X obj 458 198 route head;
#X obj 458 220 unpack f f f f f;
#X floatatom 425 265 5 0 0 0 - - -;
#X floatatom 465 265 5 0 0 0 - - -;
#X floatatom 505 265 5 0 0 0 - - -;
#X floatatom 545 265 5 0 0 0 - - -;
#X floatatom 585 265 5 0 0 0 - - -;
#X text 389 310 comment;
#X connect 0 0 1 0;
#X connect 2 0 1 0;
#X connect 3 0 1 0;
#X connect 4 0 1 0;
#X connect 5 0 11 0;
#X connect 6 0 9 0;
#X connect 6 2 12 0;
#X connect 7 0 6 1;
#X connect 8 0 6 0;
#X connect 9 0 10 0;
#X connect 11 0 6 0;
#X connect 12 0 13 0;
#X connect 13 0 14 0;
#X connect 14 0 15 0;
#X connect 14 1 16 0;
#X connect 14 2 17 0;
#X connect 14 3 18 0;
#X connect 14 4 19 0;
