#N canvas 411 22 765 602 10;
#X msg 18 164 dimen 800 600;
#X obj 18 246 gemwin;
#X obj 27 194 tgl 15 0 empty empty empty 17 7 0 10 -262144 -1 -1 1
1;
#X msg 62 196 create;
#X msg 122 196 destroy;
#X obj 241 98 tgl 15 0 empty empty empty 17 7 0 10 -262144 -1 -1 1
1;
#X obj 341 134 pix_openni 0 1 1 0 1;
#X obj 458 102 gemhead 50;
#X obj 341 102 gemhead 50;
#X obj 341 156 pix_texture;
#X obj 341 178 rectangle 5.33 4;
#X msg 241 118 skeleton \$1;
#X obj 458 176 route joint;
#X obj 420 27 tgl 15 0 empty empty empty 17 7 0 10 -262144 -1 -1 1
1;
#X msg 420 47 registration \$1;
#X obj 458 198 route head l_elbow r_elbow;
#X obj 328 250 unpack f f f f f;
#X obj 351 308 + 5.33;
#X obj 374 357 * -8;
#X obj 374 379 + 4;
#X obj 374 401 s y1;
#X obj 458 250 unpack f f f f f;
#X obj 481 308 + 5.33;
#X obj 504 357 * -8;
#X obj 504 379 + 4;
#X obj 578 250 unpack f f f f f;
#X obj 601 308 + 5.33;
#X obj 624 357 * -8;
#X obj 624 379 + 4;
#X obj 14 326 gemhead 55;
#X obj 14 418 translateXYZ;
#X obj 14 440 square 0.2;
#X obj 37 359 r x1;
#X obj 60 389 r y1;
#X obj 114 326 gemhead 55;
#X obj 114 418 translateXYZ;
#X obj 114 440 square 0.2;
#X obj 214 326 gemhead 55;
#X obj 214 418 translateXYZ;
#X obj 214 440 square 0.2;
#X obj 137 359 r x2;
#X obj 160 389 r y2;
#X obj 237 359 r x3;
#X obj 260 389 r y3;
#X obj 351 286 * -10.66;
#X obj 481 286 * -10.66;
#X obj 601 286 * -10.66;
#X obj 351 330 s x1;
#X obj 481 330 s x2;
#X obj 601 330 s x3;
#X obj 504 401 s y2;
#X obj 624 401 s y3;
#X connect 0 0 1 0;
#X connect 2 0 1 0;
#X connect 3 0 1 0;
#X connect 4 0 1 0;
#X connect 5 0 11 0;
#X connect 6 0 9 0;
#X connect 6 2 12 0;
#X connect 7 0 6 1;
#X connect 8 0 6 0;
#X connect 9 0 10 0;
#X connect 11 0 6 0;
#X connect 12 0 15 0;
#X connect 13 0 14 0;
#X connect 14 0 6 0;
#X connect 15 0 16 0;
#X connect 15 1 21 0;
#X connect 15 2 25 0;
#X connect 16 1 44 0;
#X connect 16 2 18 0;
#X connect 17 0 47 0;
#X connect 18 0 19 0;
#X connect 19 0 20 0;
#X connect 21 1 45 0;
#X connect 21 2 23 0;
#X connect 22 0 48 0;
#X connect 23 0 24 0;
#X connect 24 0 50 0;
#X connect 25 1 46 0;
#X connect 25 2 27 0;
#X connect 26 0 49 0;
#X connect 27 0 28 0;
#X connect 28 0 51 0;
#X connect 29 0 30 0;
#X connect 30 0 31 0;
#X connect 32 0 30 1;
#X connect 33 0 30 2;
#X connect 34 0 35 0;
#X connect 35 0 36 0;
#X connect 37 0 38 0;
#X connect 38 0 39 0;
#X connect 40 0 35 1;
#X connect 41 0 35 2;
#X connect 42 0 38 1;
#X connect 43 0 38 2;
#X connect 44 0 17 0;
#X connect 45 0 22 0;
#X connect 46 0 26 0;
