#N canvas 758 84 644 406 10;
#X msg 50 56 dimen 800 600;
#X obj 50 98 gemwin;
#X obj 19 64 tgl 15 0 empty empty empty 17 7 0 10 -262144 -1 -1 0 1
;
#X msg 154 59 create;
#X msg 211 60 destroy;
#X obj 295 77 gemhead;
#X obj 295 99 pix_openni 0 1 1 0 0;
#X connect 0 0 1 0;
#X connect 2 0 1 0;
#X connect 3 0 1 0;
#X connect 4 0 1 0;
#X connect 5 0 6 0;
