#N canvas 795 73 586 546 10;
#X msg 70 119 dimen 800 600;
#X obj 170 171 gemwin;
#X obj 170 132 tgl 15 0 empty empty empty 17 7 0 10 -262144 -1 -1 1
1;
#X msg 211 133 create;
#X msg 273 135 destroy;
#X obj 163 247 gemhead;
#X obj 163 269 pix_freenect 0 1 1;
#X obj 53 343 pix_texture;
#X obj 53 365 rectangle 2.66 2;
#X obj 213 343 pix_texture;
#X obj 213 365 rectangle 2.66 2;
#X obj 213 321 translate 1 2.66 0 0;
#X obj 268 244 gemhead;
#X obj 53 321 translate 1 -2.66 0 0;
#X connect 0 0 1 0;
#X connect 2 0 1 0;
#X connect 3 0 1 0;
#X connect 4 0 1 0;
#X connect 5 0 6 0;
#X connect 6 0 13 0;
#X connect 6 1 11 0;
#X connect 7 0 8 0;
#X connect 9 0 10 0;
#X connect 11 0 9 0;
#X connect 12 0 6 1;
#X connect 13 0 7 0;
