#N canvas 99 40 988 771 10;
#X obj 18 246 gemwin;
#X obj 27 194 tgl 15 0 empty empty empty 17 7 0 10 -262144 -1 -1 1
1;
#X msg 62 196 create;
#X msg 122 196 destroy;
#X obj 241 98 tgl 15 0 empty empty empty 17 7 0 10 -262144 -1 -1 1
1;
#X obj 341 134 pix_openni 0 1 1 0 1;
#X obj 458 102 gemhead 50;
#X obj 341 102 gemhead 50;
#X obj 301 186 pix_texture;
#X msg 241 118 skeleton \$1;
#X obj 458 176 route joint;
#X obj 420 27 tgl 15 0 empty empty empty 17 7 0 10 -262144 -1 -1 1
1;
#X msg 420 47 registration \$1;
#X obj 503 335 s y1;
#X obj 154 536 gemhead 55;
#X obj 154 628 translateXYZ;
#X obj 154 650 square 0.2;
#X obj 254 536 gemhead 55;
#X obj 254 628 translateXYZ;
#X obj 254 650 square 0.2;
#X obj 458 335 s x1;
#X obj 758 188 route head neck torso waist l_collar l_shoulder l_elbow
l_wrist l_hand l_fingertip r_collar r_shoulder r_elbow r_wrist r_hand
r_fingertip l_hip l_knee l_ankle l_foot r_hip r_knee r_ankle r_foot
;
#N canvas 569 383 450 300 convt 0;
#X obj -465 -269 unpack f f f f f;
#X obj -442 -211 + 5.33;
#X obj -419 -162 * -8;
#X obj -419 -140 + 4;
#X obj -442 -233 * -10.66;
#X obj -465 -293 inlet;
#X obj -442 -113 outlet;
#X obj -395 -113 outlet;
#X connect 0 1 4 0;
#X connect 0 2 2 0;
#X connect 1 0 6 0;
#X connect 2 0 3 0;
#X connect 3 0 7 0;
#X connect 4 0 1 0;
#X connect 5 0 0 0;
#X restore 548 315 pd convt;
#N canvas 569 383 450 300 convt 0;
#X obj -465 -269 unpack f f f f f;
#X obj -442 -211 + 5.33;
#X obj -419 -162 * -8;
#X obj -419 -140 + 4;
#X obj -442 -233 * -10.66;
#X obj -465 -293 inlet;
#X obj -442 -113 outlet;
#X obj -395 -113 outlet;
#X connect 0 1 4 0;
#X connect 0 2 2 0;
#X connect 1 0 6 0;
#X connect 2 0 3 0;
#X connect 3 0 7 0;
#X connect 4 0 1 0;
#X connect 5 0 0 0;
#X restore 528 365 pd convt;
#N canvas 569 383 450 300 convt 0;
#X obj -465 -269 unpack f f f f f;
#X obj -442 -211 + 5.33;
#X obj -419 -162 * -8;
#X obj -419 -140 + 4;
#X obj -442 -233 * -10.66;
#X obj -465 -293 inlet;
#X obj -442 -113 outlet;
#X obj -395 -113 outlet;
#X connect 0 1 4 0;
#X connect 0 2 2 0;
#X connect 1 0 6 0;
#X connect 2 0 3 0;
#X connect 3 0 7 0;
#X connect 4 0 1 0;
#X connect 5 0 0 0;
#X restore 618 365 pd convt;
#N canvas 569 383 450 300 convt 0;
#X obj -465 -269 unpack f f f f f;
#X obj -442 -211 + 5.33;
#X obj -419 -162 * -8;
#X obj -419 -140 + 4;
#X obj -442 -233 * -10.66;
#X obj -465 -293 inlet;
#X obj -442 -113 outlet;
#X obj -395 -113 outlet;
#X connect 0 1 4 0;
#X connect 0 2 2 0;
#X connect 1 0 6 0;
#X connect 2 0 3 0;
#X connect 3 0 7 0;
#X connect 4 0 1 0;
#X connect 5 0 0 0;
#X restore 648 315 pd convt;
#N canvas 569 383 450 300 convt 0;
#X obj -465 -269 unpack f f f f f;
#X obj -442 -211 + 5.33;
#X obj -419 -162 * -8;
#X obj -419 -140 + 4;
#X obj -442 -233 * -10.66;
#X obj -465 -293 inlet;
#X obj -442 -113 outlet;
#X obj -395 -113 outlet;
#X connect 0 1 4 0;
#X connect 0 2 2 0;
#X connect 1 0 6 0;
#X connect 2 0 3 0;
#X connect 3 0 7 0;
#X connect 4 0 1 0;
#X connect 5 0 0 0;
#X restore 738 315 pd convt;
#N canvas 569 383 450 300 convt 0;
#X obj -465 -269 unpack f f f f f;
#X obj -442 -211 + 5.33;
#X obj -419 -162 * -8;
#X obj -419 -140 + 4;
#X obj -442 -233 * -10.66;
#X obj -465 -293 inlet;
#X obj -442 -113 outlet;
#X obj -395 -113 outlet;
#X connect 0 1 4 0;
#X connect 0 2 2 0;
#X connect 1 0 6 0;
#X connect 2 0 3 0;
#X connect 3 0 7 0;
#X connect 4 0 1 0;
#X connect 5 0 0 0;
#X restore 718 365 pd convt;
#N canvas 569 383 450 300 convt 0;
#X obj -465 -269 unpack f f f f f;
#X obj -442 -211 + 5.33;
#X obj -419 -162 * -8;
#X obj -419 -140 + 4;
#X obj -442 -233 * -10.66;
#X obj -465 -293 inlet;
#X obj -442 -113 outlet;
#X obj -395 -113 outlet;
#X connect 0 1 4 0;
#X connect 0 2 2 0;
#X connect 1 0 6 0;
#X connect 2 0 3 0;
#X connect 3 0 7 0;
#X connect 4 0 1 0;
#X connect 5 0 0 0;
#X restore 808 365 pd convt;
#N canvas 569 383 450 300 convt 0;
#X obj -465 -269 unpack f f f f f;
#X obj -442 -211 + 5.33;
#X obj -419 -162 * -8;
#X obj -419 -140 + 4;
#X obj -442 -233 * -10.66;
#X obj -465 -293 inlet;
#X obj -442 -113 outlet;
#X obj -395 -113 outlet;
#X connect 0 1 4 0;
#X connect 0 2 2 0;
#X connect 1 0 6 0;
#X connect 2 0 3 0;
#X connect 3 0 7 0;
#X connect 4 0 1 0;
#X connect 5 0 0 0;
#X restore 828 315 pd convt;
#N canvas 569 383 450 300 convt 0;
#X obj -465 -269 unpack f f f f f;
#X obj -442 -211 + 5.33;
#X obj -419 -162 * -8;
#X obj -419 -140 + 4;
#X obj -442 -233 * -10.66;
#X obj -465 -293 inlet;
#X obj -442 -113 outlet;
#X obj -395 -113 outlet;
#X connect 0 1 4 0;
#X connect 0 2 2 0;
#X connect 1 0 6 0;
#X connect 2 0 3 0;
#X connect 3 0 7 0;
#X connect 4 0 1 0;
#X connect 5 0 0 0;
#X restore 918 315 pd convt;
#N canvas 569 383 450 300 convt 0;
#X obj -465 -269 unpack f f f f f;
#X obj -442 -211 + 5.33;
#X obj -419 -162 * -8;
#X obj -419 -140 + 4;
#X obj -442 -233 * -10.66;
#X obj -465 -293 inlet;
#X obj -442 -113 outlet;
#X obj -395 -113 outlet;
#X connect 0 1 4 0;
#X connect 0 2 2 0;
#X connect 1 0 6 0;
#X connect 2 0 3 0;
#X connect 3 0 7 0;
#X connect 4 0 1 0;
#X connect 5 0 0 0;
#X restore 898 365 pd convt;
#N canvas 569 383 450 300 convt 0;
#X obj -465 -269 unpack f f f f f;
#X obj -442 -211 + 5.33;
#X obj -419 -162 * -8;
#X obj -419 -140 + 4;
#X obj -442 -233 * -10.66;
#X obj -465 -293 inlet;
#X obj -442 -113 outlet;
#X obj -395 -113 outlet;
#X connect 0 1 4 0;
#X connect 0 2 2 0;
#X connect 1 0 6 0;
#X connect 2 0 3 0;
#X connect 3 0 7 0;
#X connect 4 0 1 0;
#X connect 5 0 0 0;
#X restore 988 365 pd convt;
#N canvas 569 383 450 300 convt 0;
#X obj -465 -269 unpack f f f f f;
#X obj -442 -211 + 5.33;
#X obj -419 -162 * -8;
#X obj -419 -140 + 4;
#X obj -442 -233 * -10.66;
#X obj -465 -293 inlet;
#X obj -442 -113 outlet;
#X obj -395 -113 outlet;
#X connect 0 1 4 0;
#X connect 0 2 2 0;
#X connect 1 0 6 0;
#X connect 2 0 3 0;
#X connect 3 0 7 0;
#X connect 4 0 1 0;
#X connect 5 0 0 0;
#X restore 1018 315 pd convt;
#N canvas 569 383 450 300 convt 0;
#X obj -465 -269 unpack f f f f f;
#X obj -442 -211 + 5.33;
#X obj -419 -162 * -8;
#X obj -419 -140 + 4;
#X obj -442 -233 * -10.66;
#X obj -465 -293 inlet;
#X obj -442 -113 outlet;
#X obj -395 -113 outlet;
#X connect 0 1 4 0;
#X connect 0 2 2 0;
#X connect 1 0 6 0;
#X connect 2 0 3 0;
#X connect 3 0 7 0;
#X connect 4 0 1 0;
#X connect 5 0 0 0;
#X restore 1108 315 pd convt;
#N canvas 569 383 450 300 convt 0;
#X obj -465 -269 unpack f f f f f;
#X obj -442 -211 + 5.33;
#X obj -419 -162 * -8;
#X obj -419 -140 + 4;
#X obj -442 -233 * -10.66;
#X obj -465 -293 inlet;
#X obj -442 -113 outlet;
#X obj -395 -113 outlet;
#X connect 0 1 4 0;
#X connect 0 2 2 0;
#X connect 1 0 6 0;
#X connect 2 0 3 0;
#X connect 3 0 7 0;
#X connect 4 0 1 0;
#X connect 5 0 0 0;
#X restore 1088 365 pd convt;
#N canvas 569 383 450 300 convt 0;
#X obj -465 -269 unpack f f f f f;
#X obj -442 -211 + 5.33;
#X obj -419 -162 * -8;
#X obj -419 -140 + 4;
#X obj -442 -233 * -10.66;
#X obj -465 -293 inlet;
#X obj -442 -113 outlet;
#X obj -395 -113 outlet;
#X connect 0 1 4 0;
#X connect 0 2 2 0;
#X connect 1 0 6 0;
#X connect 2 0 3 0;
#X connect 3 0 7 0;
#X connect 4 0 1 0;
#X connect 5 0 0 0;
#X restore 1178 365 pd convt;
#N canvas 569 383 450 300 convt 0;
#X obj -465 -269 unpack f f f f f;
#X obj -442 -211 + 5.33;
#X obj -419 -162 * -8;
#X obj -419 -140 + 4;
#X obj -442 -233 * -10.66;
#X obj -465 -293 inlet;
#X obj -442 -113 outlet;
#X obj -395 -113 outlet;
#X connect 0 1 4 0;
#X connect 0 2 2 0;
#X connect 1 0 6 0;
#X connect 2 0 3 0;
#X connect 3 0 7 0;
#X connect 4 0 1 0;
#X connect 5 0 0 0;
#X restore 1198 315 pd convt;
#N canvas 569 383 450 300 convt 0;
#X obj -465 -269 unpack f f f f f;
#X obj -442 -211 + 5.33;
#X obj -419 -162 * -8;
#X obj -419 -140 + 4;
#X obj -442 -233 * -10.66;
#X obj -465 -293 inlet;
#X obj -442 -113 outlet;
#X obj -395 -113 outlet;
#X connect 0 1 4 0;
#X connect 0 2 2 0;
#X connect 1 0 6 0;
#X connect 2 0 3 0;
#X connect 3 0 7 0;
#X connect 4 0 1 0;
#X connect 5 0 0 0;
#X restore 1288 315 pd convt;
#N canvas 569 383 450 300 convt 0;
#X obj -465 -269 unpack f f f f f;
#X obj -442 -211 + 5.33;
#X obj -419 -162 * -8;
#X obj -419 -140 + 4;
#X obj -442 -233 * -10.66;
#X obj -465 -293 inlet;
#X obj -442 -113 outlet;
#X obj -395 -113 outlet;
#X connect 0 1 4 0;
#X connect 0 2 2 0;
#X connect 1 0 6 0;
#X connect 2 0 3 0;
#X connect 3 0 7 0;
#X connect 4 0 1 0;
#X connect 5 0 0 0;
#X restore 1268 365 pd convt;
#N canvas 569 383 450 300 convt 0;
#X obj -465 -269 unpack f f f f f;
#X obj -442 -211 + 5.33;
#X obj -419 -162 * -8;
#X obj -419 -140 + 4;
#X obj -442 -233 * -10.66;
#X obj -465 -293 inlet;
#X obj -442 -113 outlet;
#X obj -395 -113 outlet;
#X connect 0 1 4 0;
#X connect 0 2 2 0;
#X connect 1 0 6 0;
#X connect 2 0 3 0;
#X connect 3 0 7 0;
#X connect 4 0 1 0;
#X connect 5 0 0 0;
#X restore 1358 365 pd convt;
#N canvas 569 383 450 300 convt 0;
#X obj -465 -269 unpack f f f f f;
#X obj -442 -211 + 5.33;
#X obj -419 -162 * -8;
#X obj -419 -140 + 4;
#X obj -442 -233 * -10.66;
#X obj -465 -293 inlet;
#X obj -442 -113 outlet;
#X obj -395 -113 outlet;
#X connect 0 1 4 0;
#X connect 0 2 2 0;
#X connect 1 0 6 0;
#X connect 2 0 3 0;
#X connect 3 0 7 0;
#X connect 4 0 1 0;
#X connect 5 0 0 0;
#X restore 1388 315 pd convt;
#N canvas 569 383 450 300 convt 0;
#X obj -465 -269 unpack f f f f f;
#X obj -442 -211 + 5.33;
#X obj -419 -162 * -8;
#X obj -419 -140 + 4;
#X obj -442 -233 * -10.66;
#X obj -465 -293 inlet;
#X obj -442 -113 outlet;
#X obj -395 -113 outlet;
#X connect 0 1 4 0;
#X connect 0 2 2 0;
#X connect 1 0 6 0;
#X connect 2 0 3 0;
#X connect 3 0 7 0;
#X connect 4 0 1 0;
#X connect 5 0 0 0;
#X restore 1478 315 pd convt;
#N canvas 569 383 450 300 convt 0;
#X obj -465 -269 unpack f f f f f;
#X obj -442 -211 + 5.33;
#X obj -419 -162 * -8;
#X obj -419 -140 + 4;
#X obj -442 -233 * -10.66;
#X obj -465 -293 inlet;
#X obj -442 -113 outlet;
#X obj -395 -113 outlet;
#X connect 0 1 4 0;
#X connect 0 2 2 0;
#X connect 1 0 6 0;
#X connect 2 0 3 0;
#X connect 3 0 7 0;
#X connect 4 0 1 0;
#X connect 5 0 0 0;
#X restore 1458 365 pd convt;
#N canvas 569 383 450 300 convt 0;
#X obj -465 -269 unpack f f f f f;
#X obj -442 -211 + 5.33;
#X obj -419 -162 * -8;
#X obj -419 -140 + 4;
#X obj -442 -233 * -10.66;
#X obj -465 -293 inlet;
#X obj -442 -113 outlet;
#X obj -395 -113 outlet;
#X connect 0 1 4 0;
#X connect 0 2 2 0;
#X connect 1 0 6 0;
#X connect 2 0 3 0;
#X connect 3 0 7 0;
#X connect 4 0 1 0;
#X connect 5 0 0 0;
#X restore 1548 365 pd convt;
#X obj 528 385 s x2;
#X obj 573 385 s y2;
#X obj 548 335 s x3;
#X obj 593 335 s y3;
#X obj 618 385 s x4;
#X obj 663 385 s y4;
#X obj 718 385 s x6;
#X obj 763 385 s y6;
#X obj 808 385 s x8;
#X obj 853 385 s y8;
#X obj 898 385 s x10;
#X obj 943 385 s y10;
#X obj 988 385 s x12;
#X obj 1033 385 s y12;
#X obj 1088 385 s x14;
#X obj 1133 385 s y14;
#X obj 1178 385 s x16;
#X obj 1223 385 s y16;
#X obj 1268 385 s x18;
#X obj 1313 385 s y18;
#X obj 1358 385 s x20;
#X obj 1403 385 s y20;
#X obj 1458 385 s x22;
#X obj 1503 385 s y22;
#X obj 1548 385 s x24;
#X obj 1593 385 s y24;
#X obj 648 335 s x5;
#X obj 693 335 s y5;
#X obj 738 335 s x7;
#X obj 783 335 s y7;
#X obj 828 335 s x9;
#X obj 873 335 s y9;
#X obj 918 335 s x11;
#X obj 963 335 s y11;
#X obj 1018 335 s x13;
#X obj 1063 335 s y13;
#X obj 1108 335 s x15;
#X obj 1153 335 s y15;
#X obj 1198 335 s x17;
#X obj 1243 335 s y17;
#X obj 1288 335 s x19;
#X obj 1333 335 s y19;
#X obj 1388 335 s x21;
#X obj 1433 335 s y21;
#X obj 1478 335 s x23;
#X obj 1523 335 s y23;
#X obj 384 536 gemhead 55;
#X obj 384 628 translateXYZ;
#X obj 384 650 square 0.2;
#X obj 484 536 gemhead 55;
#X obj 484 628 translateXYZ;
#X obj 484 650 square 0.2;
#X obj 604 456 gemhead 55;
#X obj 604 548 translateXYZ;
#X obj 604 570 square 0.2;
#X obj 704 456 gemhead 55;
#X obj 704 548 translateXYZ;
#X obj 704 570 square 0.2;
#X obj 834 456 gemhead 55;
#X obj 834 548 translateXYZ;
#X obj 834 570 square 0.2;
#X obj 934 456 gemhead 55;
#X obj 934 548 translateXYZ;
#X obj 934 570 square 0.2;
#X obj 1064 456 gemhead 55;
#X obj 1064 548 translateXYZ;
#X obj 1064 570 square 0.2;
#X obj 1164 456 gemhead 55;
#X obj 1164 548 translateXYZ;
#X obj 1164 570 square 0.2;
#X obj 1294 456 gemhead 55;
#X obj 1294 548 translateXYZ;
#X obj 1294 570 square 0.2;
#X obj 1394 456 gemhead 55;
#X obj 1394 548 translateXYZ;
#X obj 1394 570 square 0.2;
#X obj 1317 489 r x2;
#X obj 1417 489 r x3;
#X obj 154 706 gemhead 55;
#X obj 154 798 translateXYZ;
#X obj 154 820 square 0.2;
#X obj 254 706 gemhead 55;
#X obj 254 798 translateXYZ;
#X obj 254 820 square 0.2;
#X obj 384 706 gemhead 55;
#X obj 384 798 translateXYZ;
#X obj 384 820 square 0.2;
#X obj 484 706 gemhead 55;
#X obj 484 798 translateXYZ;
#X obj 484 820 square 0.2;
#X obj 604 626 gemhead 55;
#X obj 604 718 translateXYZ;
#X obj 604 740 square 0.2;
#X obj 704 626 gemhead 55;
#X obj 704 718 translateXYZ;
#X obj 704 740 square 0.2;
#X obj 834 626 gemhead 55;
#X obj 834 718 translateXYZ;
#X obj 834 740 square 0.2;
#X obj 934 626 gemhead 55;
#X obj 934 718 translateXYZ;
#X obj 934 740 square 0.2;
#X obj 1064 626 gemhead 55;
#X obj 1064 718 translateXYZ;
#X obj 1064 740 square 0.2;
#X obj 1164 626 gemhead 55;
#X obj 1164 718 translateXYZ;
#X obj 1164 740 square 0.2;
#X obj 1294 626 gemhead 55;
#X obj 1294 718 translateXYZ;
#X obj 1294 740 square 0.2;
#X obj 1394 626 gemhead 55;
#X obj 1394 718 translateXYZ;
#X obj 1394 740 square 0.2;
#X obj 177 569 r x1;
#X obj 200 599 r y1;
#X obj 277 569 r x2;
#X obj 300 599 r y2;
#X obj 407 569 r x3;
#X obj 430 599 r y3;
#X obj 507 569 r x4;
#X obj 530 599 r y4;
#X obj 627 489 r x5;
#X obj 650 519 r y5;
#X obj 727 489 r x6;
#X obj 750 519 r y6;
#X obj 857 489 r x7;
#X obj 880 519 r y7;
#X obj 957 489 r x8;
#X obj 980 519 r y8;
#X obj 1087 489 r x9;
#X obj 1110 519 r y9;
#X obj 1187 489 r x10;
#X obj 1210 519 r y10;
#X obj 1340 519 r y11;
#X obj 1440 519 r y12;
#X obj 177 739 r x13;
#X obj 200 769 r y13;
#X obj 277 739 r x14;
#X obj 300 769 r y14;
#X obj 407 739 r x15;
#X obj 430 769 r y15;
#X obj 507 739 r x16;
#X obj 530 769 r y16;
#X obj 627 659 r x17;
#X obj 650 689 r y17;
#X obj 727 659 r x18;
#X obj 750 689 r y18;
#X obj 857 659 r x19;
#X obj 880 689 r y19;
#X obj 957 659 r x20;
#X obj 980 689 r y20;
#X obj 1087 659 r x21;
#X obj 1110 689 r y21;
#X obj 1187 659 r x22;
#X obj 1210 689 r y22;
#X obj 1317 659 r x23;
#X obj 1340 689 r y23;
#X obj 1417 659 r x24;
#X obj 1440 689 r y24;
#N canvas 569 383 450 300 convt 1;
#X obj -465 -269 unpack f f f f f;
#X obj -442 -211 + 5.33;
#X obj -419 -162 * -8;
#X obj -419 -140 + 4;
#X obj -442 -233 * -10.66;
#X obj -465 -293 inlet;
#X obj -442 -113 outlet;
#X obj -395 -113 outlet;
#X connect 0 1 4 0;
#X connect 0 2 2 0;
#X connect 1 0 6 0;
#X connect 2 0 3 0;
#X connect 3 0 7 0;
#X connect 4 0 1 0;
#X connect 5 0 0 0;
#X restore 458 315 pd convt;
#X obj 301 208 rectangle 6.4 4;
#X obj 5 10 vradio 15 1 0 3 empty empty empty 0 -8 0 10 -262144 -1
-1 0;
#X floatatom 5 61 5 0 0 0 - - -;
#X msg 5 82 reset \, fullscreen \$1 \, create \, 1;
#X text 27 7 deactivate fullscreen;
#X text 26 24 fullscreen on screen 1;
#X text 26 40 fullscreen on screen 2;
#X text 201 22 press ESC to quit;
#X msg 217 257 head 1 0.687576 0.398779 0.581891 0;
#X obj 43 494 netsend;
#X msg 77 468 disconnect;
#X msg 18 164 dimen 800 600;
#X obj 217 371 list prepend set;
#X obj 217 393 list trim;
#X obj 217 415 t b a;
#X msg 183 340 send;
#X msg 217 437 send r_foot 2 0.31958 0.771997 0.518703 0;
#X obj 186 309 t b a;
#X msg 44 433 connect 192.168.1.12 3500;
#X obj 465 218 print;
#X obj 246 310 unpack s a a a a a;
#X obj 217 349 pack s s a a a a a;
#X connect 1 0 0 0;
#X connect 2 0 0 0;
#X connect 3 0 0 0;
#X connect 4 0 9 0;
#X connect 5 0 8 0;
#X connect 5 2 10 0;
#X connect 6 0 5 1;
#X connect 7 0 5 0;
#X connect 8 0 206 0;
#X connect 9 0 5 0;
#X connect 10 0 21 0;
#X connect 10 0 225 0;
#X connect 10 0 223 0;
#X connect 11 0 12 0;
#X connect 12 0 5 0;
#X connect 14 0 15 0;
#X connect 15 0 16 0;
#X connect 17 0 18 0;
#X connect 18 0 19 0;
#X connect 21 0 205 0;
#X connect 21 1 23 0;
#X connect 21 2 22 0;
#X connect 21 3 24 0;
#X connect 21 4 25 0;
#X connect 21 5 27 0;
#X connect 21 6 26 0;
#X connect 21 7 28 0;
#X connect 21 8 29 0;
#X connect 21 9 31 0;
#X connect 21 10 30 0;
#X connect 21 11 32 0;
#X connect 21 12 33 0;
#X connect 21 13 35 0;
#X connect 21 14 34 0;
#X connect 21 15 36 0;
#X connect 21 16 37 0;
#X connect 21 17 39 0;
#X connect 21 18 38 0;
#X connect 21 19 40 0;
#X connect 21 20 41 0;
#X connect 21 21 43 0;
#X connect 21 22 42 0;
#X connect 21 23 44 0;
#X connect 22 0 47 0;
#X connect 22 1 48 0;
#X connect 23 0 45 0;
#X connect 23 1 46 0;
#X connect 24 0 49 0;
#X connect 24 1 50 0;
#X connect 25 0 71 0;
#X connect 25 1 72 0;
#X connect 26 0 73 0;
#X connect 26 1 74 0;
#X connect 27 0 51 0;
#X connect 27 1 52 0;
#X connect 28 0 53 0;
#X connect 28 1 54 0;
#X connect 29 0 75 0;
#X connect 29 1 76 0;
#X connect 30 0 77 0;
#X connect 30 1 78 0;
#X connect 31 0 55 0;
#X connect 31 1 56 0;
#X connect 32 0 57 0;
#X connect 32 1 58 0;
#X connect 33 0 79 0;
#X connect 33 1 80 0;
#X connect 34 0 81 0;
#X connect 34 1 82 0;
#X connect 35 0 59 0;
#X connect 35 1 60 0;
#X connect 36 0 61 0;
#X connect 36 1 62 0;
#X connect 37 0 83 0;
#X connect 37 1 84 0;
#X connect 38 0 85 0;
#X connect 38 1 86 0;
#X connect 39 0 63 0;
#X connect 39 1 64 0;
#X connect 40 0 65 0;
#X connect 40 1 66 0;
#X connect 41 0 87 0;
#X connect 41 1 88 0;
#X connect 42 0 89 0;
#X connect 42 1 90 0;
#X connect 43 0 67 0;
#X connect 43 1 68 0;
#X connect 44 0 69 0;
#X connect 44 1 70 0;
#X connect 91 0 92 0;
#X connect 92 0 93 0;
#X connect 94 0 95 0;
#X connect 95 0 96 0;
#X connect 97 0 98 0;
#X connect 98 0 99 0;
#X connect 100 0 101 0;
#X connect 101 0 102 0;
#X connect 103 0 104 0;
#X connect 104 0 105 0;
#X connect 106 0 107 0;
#X connect 107 0 108 0;
#X connect 109 0 110 0;
#X connect 110 0 111 0;
#X connect 112 0 113 0;
#X connect 113 0 114 0;
#X connect 115 0 116 0;
#X connect 116 0 117 0;
#X connect 118 0 119 0;
#X connect 119 0 120 0;
#X connect 121 0 116 1;
#X connect 122 0 119 1;
#X connect 123 0 124 0;
#X connect 124 0 125 0;
#X connect 126 0 127 0;
#X connect 127 0 128 0;
#X connect 129 0 130 0;
#X connect 130 0 131 0;
#X connect 132 0 133 0;
#X connect 133 0 134 0;
#X connect 135 0 136 0;
#X connect 136 0 137 0;
#X connect 138 0 139 0;
#X connect 139 0 140 0;
#X connect 141 0 142 0;
#X connect 142 0 143 0;
#X connect 144 0 145 0;
#X connect 145 0 146 0;
#X connect 147 0 148 0;
#X connect 148 0 149 0;
#X connect 150 0 151 0;
#X connect 151 0 152 0;
#X connect 153 0 154 0;
#X connect 154 0 155 0;
#X connect 156 0 157 0;
#X connect 157 0 158 0;
#X connect 159 0 15 1;
#X connect 160 0 15 2;
#X connect 161 0 18 1;
#X connect 162 0 18 2;
#X connect 163 0 92 1;
#X connect 164 0 92 2;
#X connect 165 0 95 1;
#X connect 166 0 95 2;
#X connect 167 0 98 1;
#X connect 168 0 98 2;
#X connect 169 0 101 1;
#X connect 170 0 101 2;
#X connect 171 0 104 1;
#X connect 172 0 104 2;
#X connect 173 0 107 1;
#X connect 174 0 107 2;
#X connect 175 0 110 1;
#X connect 176 0 110 2;
#X connect 177 0 113 1;
#X connect 178 0 113 2;
#X connect 179 0 116 2;
#X connect 180 0 119 2;
#X connect 181 0 124 1;
#X connect 182 0 124 2;
#X connect 183 0 127 1;
#X connect 184 0 127 2;
#X connect 185 0 130 1;
#X connect 186 0 130 2;
#X connect 187 0 133 1;
#X connect 188 0 133 2;
#X connect 189 0 136 1;
#X connect 190 0 136 2;
#X connect 191 0 139 1;
#X connect 192 0 139 2;
#X connect 193 0 142 1;
#X connect 194 0 142 2;
#X connect 195 0 145 1;
#X connect 196 0 145 2;
#X connect 197 0 148 1;
#X connect 198 0 148 2;
#X connect 199 0 151 1;
#X connect 200 0 151 2;
#X connect 201 0 154 1;
#X connect 202 0 154 2;
#X connect 203 0 157 1;
#X connect 204 0 157 2;
#X connect 205 0 20 0;
#X connect 205 1 13 0;
#X connect 207 0 208 0;
#X connect 208 0 209 0;
#X connect 214 0 223 0;
#X connect 216 0 215 0;
#X connect 217 0 0 0;
#X connect 218 0 219 0;
#X connect 219 0 220 0;
#X connect 220 0 222 0;
#X connect 220 1 222 0;
#X connect 221 0 227 0;
#X connect 222 0 215 0;
#X connect 223 0 221 0;
#X connect 223 1 226 0;
#X connect 224 0 215 0;
#X connect 226 0 227 1;
#X connect 226 1 227 2;
#X connect 226 2 227 3;
#X connect 226 3 227 4;
#X connect 226 4 227 5;
#X connect 226 5 227 6;
#X connect 227 0 218 0;
