#N canvas 677 177 765 602 10;
#X msg 18 164 dimen 800 600;
#X obj 18 246 gemwin;
#X obj 27 194 tgl 15 0 empty empty empty 17 7 0 10 -262144 -1 -1 1
1;
#X msg 62 196 create;
#X msg 122 196 destroy;
#X obj 73 302 gemhead 55;
#X obj 73 364 translateXYZ;
#X obj 73 386 color 1 0 0;
#X obj 73 408 circle 0.5;
#X obj 241 98 tgl 15 0 empty empty empty 17 7 0 10 -262144 -1 -1 1
1;
#X msg 241 118 hand \$1;
#X obj 341 134 pix_openni 0 1 1 0 1;
#X obj 458 102 gemhead 50;
#X obj 341 102 gemhead 50;
#X obj 341 156 pix_texture;
#X obj 341 178 rectangle 5.33 4;
#X obj 458 176 route hand;
#X obj 458 198 route 1;
#X obj 458 220 unpack f f f;
#X obj 418 269 * -10.66;
#X obj 418 291 + 5.33;
#X obj 418 313 s x;
#X obj 498 269 * -8;
#X obj 498 291 + 4;
#X obj 498 313 s y;
#X floatatom 544 275 5 0 0 0 - - -;
#X obj 95 337 r x;
#X obj 135 337 r y;
#X connect 0 0 1 0;
#X connect 2 0 1 0;
#X connect 3 0 1 0;
#X connect 4 0 1 0;
#X connect 5 0 6 0;
#X connect 6 0 7 0;
#X connect 7 0 8 0;
#X connect 9 0 10 0;
#X connect 10 0 11 0;
#X connect 11 0 14 0;
#X connect 11 2 16 0;
#X connect 12 0 11 1;
#X connect 13 0 11 0;
#X connect 14 0 15 0;
#X connect 16 0 17 0;
#X connect 17 0 18 0;
#X connect 18 0 19 0;
#X connect 18 1 22 0;
#X connect 18 2 25 0;
#X connect 19 0 20 0;
#X connect 20 0 21 0;
#X connect 22 0 23 0;
#X connect 23 0 24 0;
#X connect 26 0 6 1;
#X connect 27 0 6 2;
