#N canvas 288 55 1269 800 10;
#X floatatom -340 1421 5 0 0 3 a3 - -;
#X floatatom -387 401 5 0 1 0 A0 a0 -;
#X floatatom -387 431 5 0 1 0 A1 a1 -;
#X floatatom -387 461 5 0 1 0 A2 a2 -;
#X floatatom -387 491 5 0 1 0 A3 a3 -;
#X floatatom -387 521 5 0 1 0 A4 a4 -;
#X floatatom -387 551 5 0 1 0 A5 a5 -;
#X floatatom -257 401 5 0 1 1 __D08 - pwm8;
#X floatatom -257 431 5 0 1 1 __D09 - pwm9;
#X floatatom -257 461 5 0 1 1 __D10 - pwm10;
#X floatatom -257 491 5 0 1 1 __D11 - pwm11;
#X floatatom -257 521 5 0 1 1 __D12 - pwm12;
#X floatatom -257 551 5 0 1 1 __D13 - pwm13;
#X floatatom -387 641 5 0 1 0 D14 d14 -;
#X floatatom -387 671 5 0 1 0 D15 d15 -;
#X floatatom -387 701 5 0 1 0 D16 d16 -;
#X floatatom -387 731 5 0 0 0 D17 d17 -;
#X floatatom -387 761 5 0 1 0 D18 d18 -;
#X floatatom -387 791 5 0 1 0 D19 d19 -;
#X floatatom -257 641 5 0 1 1 __D02 - dig2;
#X floatatom -257 671 5 0 1 1 __D03 - dig3;
#X floatatom -257 701 5 0 1 1 __D04 - dig4;
#X floatatom -257 731 5 0 0 1 __D05 - dig5;
#X floatatom -257 761 5 0 1 1 __D06 - dig6;
#X floatatom -257 791 5 0 1 1 __D07 - dig7;
#N canvas 403 207 792 782 initialization 0;
#X msg 61 454 pinMode 14 input;
#X msg 51 484 pinMode 15 input;
#X msg 41 514 pinMode 16 input;
#X msg 31 544 pinMode 17 input;
#X msg 21 574 pinMode 18 input;
#X msg 11 604 pinMode 19 input;
#X obj 11 636 s ar;
#X obj 191 376 s ar;
#X msg 241 194 pinMode 8 pwm;
#X msg 231 224 pinMode 9 pwm;
#X msg 221 254 pinMode 10 pwm;
#X msg 211 284 pinMode 11 pwm;
#X msg 201 314 pinMode 12 pwm;
#X msg 191 344 pinMode 13 pwm;
#X obj 191 636 s ar;
#X msg 241 454 pinMode 2 output;
#X msg 231 484 pinMode 3 output;
#X msg 221 514 pinMode 4 output;
#X msg 211 544 pinMode 5 output;
#X msg 201 574 pinMode 6 output;
#X msg 191 604 pinMode 7 output;
#X obj 412 162 r pwm8;
#X msg 412 184 analog 8 \$1;
#X obj 415 288 s ar;
#X msg 492 184 analog 9 \$1;
#X msg 572 184 analog 10 \$1;
#X msg 442 234 analog 11 \$1;
#X msg 522 234 analog 12 \$1;
#X msg 602 234 analog 13 \$1;
#X obj 492 162 r pwm9;
#X obj 572 162 r pwm10;
#X obj 442 212 r pwm11;
#X obj 522 212 r pwm12;
#X obj 602 212 r pwm13;
#X obj 415 548 s ar;
#X msg 412 444 digital 2 \$1;
#X msg 492 444 digital 3 \$1;
#X msg 572 444 digital 4 \$1;
#X msg 442 494 digital 5 \$1;
#X msg 522 494 digital 6 \$1;
#X msg 602 494 digital 7 \$1;
#X obj 412 422 r dig2;
#X obj 492 422 r dig3;
#X obj 573 422 r dig4;
#X obj 442 472 r dig5;
#X obj 522 472 r dig6;
#X obj 602 472 r dig7;
#X obj 191 164 r initial;
#X obj 11 424 r initial;
#X obj 191 424 r initial;
#X obj 11 376 s ar;
#X obj 11 164 r initial;
#X msg 61 204 analogIns 0 1;
#X msg 51 234 analogIns 1 1;
#X msg 41 264 analogIns 2 1;
#X msg 31 294 analogIns 3 1;
#X msg 21 324 analogIns 4 1;
#X msg 11 347 analogIns 5 1;
#X obj 78 63 loadbang;
#X obj 78 107 s initial;
#X obj 15 64 r infOK;
#X obj 15 85 bng 15 250 50 0 empty empty empty 17 7 0 10 -262144 -1
-1;
#X connect 0 0 6 0;
#X connect 1 0 6 0;
#X connect 2 0 6 0;
#X connect 3 0 6 0;
#X connect 4 0 6 0;
#X connect 5 0 6 0;
#X connect 8 0 7 0;
#X connect 9 0 7 0;
#X connect 10 0 7 0;
#X connect 11 0 7 0;
#X connect 12 0 7 0;
#X connect 13 0 7 0;
#X connect 15 0 14 0;
#X connect 16 0 14 0;
#X connect 17 0 14 0;
#X connect 18 0 14 0;
#X connect 19 0 14 0;
#X connect 20 0 14 0;
#X connect 21 0 22 0;
#X connect 22 0 23 0;
#X connect 24 0 23 0;
#X connect 25 0 23 0;
#X connect 26 0 23 0;
#X connect 27 0 23 0;
#X connect 28 0 23 0;
#X connect 29 0 24 0;
#X connect 30 0 25 0;
#X connect 31 0 26 0;
#X connect 32 0 27 0;
#X connect 33 0 28 0;
#X connect 35 0 34 0;
#X connect 36 0 34 0;
#X connect 37 0 34 0;
#X connect 38 0 34 0;
#X connect 39 0 34 0;
#X connect 40 0 34 0;
#X connect 41 0 35 0;
#X connect 42 0 36 0;
#X connect 43 0 37 0;
#X connect 44 0 38 0;
#X connect 45 0 39 0;
#X connect 46 0 40 0;
#X connect 47 0 8 0;
#X connect 47 0 9 0;
#X connect 47 0 10 0;
#X connect 47 0 11 0;
#X connect 47 0 12 0;
#X connect 47 0 13 0;
#X connect 48 0 0 0;
#X connect 48 0 1 0;
#X connect 48 0 2 0;
#X connect 48 0 3 0;
#X connect 48 0 4 0;
#X connect 48 0 5 0;
#X connect 49 0 15 0;
#X connect 49 0 16 0;
#X connect 49 0 17 0;
#X connect 49 0 18 0;
#X connect 49 0 19 0;
#X connect 49 0 20 0;
#X connect 51 0 52 0;
#X connect 51 0 53 0;
#X connect 51 0 54 0;
#X connect 51 0 55 0;
#X connect 51 0 56 0;
#X connect 51 0 57 0;
#X connect 52 0 50 0;
#X connect 53 0 50 0;
#X connect 54 0 50 0;
#X connect 55 0 50 0;
#X connect 56 0 50 0;
#X connect 57 0 50 0;
#X connect 58 0 59 0;
#X connect 60 0 61 0;
#X connect 61 0 59 0;
#X restore -397 293 pd initialization;
#N canvas 1101 413 450 300 routing 0;
#X floatatom 4 225 5 0 0 3 a0 - -;
#X floatatom 50 225 5 0 0 3 a1 - -;
#X floatatom 96 225 5 0 0 3 a2 - -;
#X floatatom 142 225 5 0 0 3 a3 - -;
#X floatatom 188 225 5 0 0 3 a4 - -;
#X floatatom 234 225 5 0 0 3 a5 - -;
#N canvas 981 48 499 396 display 0;
#X obj 6 7 inlet;
#X obj 6 28 mapping/resample 100;
#X obj 6 50 outlet;
#X obj 54 50 inlet;
#X obj 54 71 mapping/resample 100;
#X obj 54 93 outlet;
#X obj 103 93 inlet;
#X obj 103 114 mapping/resample 100;
#X obj 103 136 outlet;
#X obj 151 136 inlet;
#X obj 151 157 mapping/resample 100;
#X obj 151 179 outlet;
#X obj 200 179 inlet;
#X obj 200 200 mapping/resample 100;
#X obj 200 222 outlet;
#X obj 247 222 inlet;
#X obj 247 243 mapping/resample 100;
#X obj 247 265 outlet;
#X obj 295 265 inlet;
#X obj 295 286 mapping/resample 100;
#X obj 295 308 outlet;
#X obj 345 308 inlet;
#X obj 345 329 mapping/resample 100;
#X obj 345 351 outlet;
#X obj 60 290 receive ARDUINO_TEST_RESET;
#X connect 0 0 1 0;
#X connect 1 0 2 0;
#X connect 3 0 4 0;
#X connect 4 0 5 0;
#X connect 6 0 7 0;
#X connect 7 0 8 0;
#X connect 9 0 10 0;
#X connect 10 0 11 0;
#X connect 12 0 13 0;
#X connect 13 0 14 0;
#X connect 15 0 16 0;
#X connect 16 0 17 0;
#X connect 18 0 19 0;
#X connect 19 0 20 0;
#X connect 21 0 22 0;
#X connect 22 0 23 0;
#X connect 24 0 22 0;
#X connect 24 0 19 0;
#X connect 24 0 16 0;
#X connect 24 0 13 0;
#X connect 24 0 10 0;
#X connect 24 0 7 0;
#X connect 24 0 4 0;
#X connect 24 0 1 0;
#X restore 4 199 pd display values without pegging the CPU;
#N canvas 0 22 450 300 STRING 0;
#X obj 48 13 inlet;
#X obj 51 93 moocow/string2any 32 -1;
#X obj 51 154 print STRING;
#X connect 0 0 1 0;
#X connect 1 0 2 0;
#X restore 32 87 pd STRING;
#N canvas 0 22 450 300 sysex 0;
#X obj 139 19 inlet;
#X obj 127 109 moocow/string2any 32 -1;
#X obj 127 170 print STRING;
#X obj 97 55 list split 1;
#X obj 40 109 print COMMAND;
#X obj 210 54 print sysex;
#X connect 0 0 3 0;
#X connect 0 0 5 0;
#X connect 1 0 2 0;
#X connect 3 0 4 0;
#X connect 3 1 1 0;
#X restore 97 87 pd sysex;
#X text 4 107 analog inputs:;
#X text 276 105 digital inputs:;
#X obj 3 51 route analog string sysex digital;
#X obj 269 150 tgl 10 0 empty ARDUINO_TEST_RESET empty 0 20 0 10 -261682
-1 -1 0 1;
#X obj 282 150 tgl 10 0 empty ARDUINO_TEST_RESET empty 0 20 0 10 -261682
-1 -1 0 1;
#X obj 295 150 tgl 10 0 empty ARDUINO_TEST_RESET empty 0 20 0 10 -261682
-1 -1 0 1;
#X obj 308 150 tgl 10 0 empty ARDUINO_TEST_RESET empty 0 20 0 10 -261682
-1 -1 0 1;
#X obj 333 150 tgl 10 0 empty ARDUINO_TEST_RESET empty 0 20 0 10 -261682
-1 -1 0 1;
#X obj 50 267 s a1;
#X obj 4 267 s a0;
#X obj 96 267 s a2;
#X obj 142 267 s a3;
#X obj 188 267 s a4;
#X obj 234 267 s a5;
#X obj 269 165 s d14;
#X obj 279 185 s d15;
#X obj 289 205 s d16;
#X obj 299 225 s d17;
#X obj 309 245 s d18;
#X obj 319 265 s d19;
#X obj 321 150 tgl 10 0 empty ARDUINO_TEST_RESET empty 0 20 0 10 -261682
-1 -1 0 1;
#X obj 3 126 route 0 1 2 3 4 5;
#X obj 269 124 route 14 15 16 17 18 19;
#X obj 3 15 inlet;
#X connect 0 0 18 0;
#X connect 1 0 17 0;
#X connect 2 0 19 0;
#X connect 3 0 20 0;
#X connect 4 0 21 0;
#X connect 5 0 22 0;
#X connect 6 0 0 0;
#X connect 6 1 1 0;
#X connect 6 2 2 0;
#X connect 6 3 3 0;
#X connect 6 4 4 0;
#X connect 6 5 5 0;
#X connect 11 0 30 0;
#X connect 11 1 7 0;
#X connect 11 2 8 0;
#X connect 11 3 31 0;
#X connect 12 0 23 0;
#X connect 13 0 24 0;
#X connect 14 0 25 0;
#X connect 15 0 26 0;
#X connect 16 0 28 0;
#X connect 29 0 27 0;
#X connect 30 0 6 0;
#X connect 30 1 6 1;
#X connect 30 2 6 2;
#X connect 30 3 6 3;
#X connect 30 4 6 4;
#X connect 30 5 6 5;
#X connect 30 6 6 6;
#X connect 31 0 12 0;
#X connect 31 1 13 0;
#X connect 31 2 14 0;
#X connect 31 3 15 0;
#X connect 31 4 29 0;
#X connect 31 5 16 0;
#X connect 32 0 11 0;
#X restore -395 232 pd routing;
#X obj -167 395 tgl 15 0 empty empty empty 17 7 0 10 -262144 -1 -1
0 1;
#X obj -151 395 tgl 15 0 empty empty empty 17 7 0 10 -262144 -1 -1
0 1;
#X text -395 365 INPUTS;
#X obj -36 393 r pwm8;
#X obj 14 393 r pwm9;
#X obj 74 393 r pwm10;
#X obj 134 393 r pwm11;
#X obj 194 393 r pwm12;
#X obj 254 393 r pwm13;
#X obj -36 465 print;
#X obj -36 440 pack f f f f f f;
#X msg 202 510 send \$1 \$2 \$3 \$4 \$5 \$6;
#X obj 372 640 netsend;
#X msg 372 559 disconnect;
#X floatatom 372 667 0 0 0 0 - - -;
#X msg 372 478 connect localhost 3500;
#X connect 18 0 21 0;
#X connect 30 0 37 0;
#X connect 31 0 37 1;
#X connect 32 0 37 2;
#X connect 33 0 37 3;
#X connect 34 0 37 4;
#X connect 35 0 37 5;
#X connect 37 0 36 0;
#X connect 37 0 38 0;
#X connect 38 0 39 0;
#X connect 39 0 41 0;
#X connect 40 0 39 0;
#X connect 42 0 39 0;
