#N canvas 225 57 1228 760 10;
#X declare -lib mrpeach;
#X obj -29 190 cnv 15 60 22 empty empty empty 20 12 0 14 -253938 -66577
0;
#N canvas 146 163 525 433 serin 0;
#X obj 180 61 cnv 15 15 15 empty \$0-number-canvas 4 4 8 0 14 -233017
-1 0;
#X obj 200 225 s \$0-number-canvas;
#X obj 60 61 hradio 15 1 1 8 empty empty empty 0 -6 0 8 -225271 -1
-1 4;
#X obj 60 13 inlet;
#X msg 200 202 label \$1;
#X obj 200 180 makefilename %d;
#X obj 59 108 int;
#X msg 59 206 open \$1;
#X obj 59 377 outlet;
#X msg 201 306 set \$1 \$2;
#X obj 59 266 trigger bang anything;
#X obj 201 286 list;
#X obj 383 383 outlet;
#X obj 384 22 netreceive 34567;
#X obj 477 43 tgl 15 0 empty empty empty 0 -6 0 10 -262144 -1 -1 0
1;
#X obj 384 41 bng 15 250 50 0 empty empty empty 0 -6 0 10 -262144 -1
-1;
#X obj 187 24 delay 15000;
#X text 345 379 close;
#X text 209 4 for open/close automation in Makefile;
#X obj 184 95 bang;
#X obj 184 137 send ARDUINO_TEST_RESET;
#X msg 184 116 set 0;
#X connect 2 0 6 0;
#X connect 2 0 19 0;
#X connect 3 0 2 0;
#X connect 4 0 1 0;
#X connect 5 0 4 0;
#X connect 6 0 5 0;
#X connect 6 0 7 0;
#X connect 7 0 10 0;
#X connect 9 0 8 0;
#X connect 10 0 8 0;
#X connect 10 1 11 0;
#X connect 11 0 9 0;
#X connect 13 0 15 0;
#X connect 13 1 14 0;
#X connect 15 0 16 0;
#X connect 15 0 12 0;
#X connect 16 0 2 0;
#X connect 19 0 21 0;
#X connect 21 0 20 0;
#X coords 0 -1 1 1 136 17 1 60 60;
#X restore -23 169 pd serin;
#X text -26 151 serial port #;
#X msg 75 192 close;
#X text -8 537 (C) Copyright 2006 Free Software Foundation;
#N canvas 3 48 451 224 ver 0;
#X obj 23 7 inlet;
#X obj 250 100 cnv 15 145 17 empty \$0-version_cnv empty 4 10 0 12
-203904 -1 0;
#X obj 23 157 send \$0-version_cnv;
#X msg 23 132 label \$1;
#X obj 48 103 symbol;
#X obj 38 77 loadbang;
#X msg 96 78 bang;
#X obj 309 163 outlet;
#X obj 23 52 zexy/makesymbol Firmata-%s.%s;
#X obj 23 29 route version bang;
#X connect 0 0 9 0;
#X connect 3 0 2 0;
#X connect 4 0 3 0;
#X connect 5 0 4 0;
#X connect 6 0 4 0;
#X connect 8 0 3 0;
#X connect 9 0 8 0;
#X connect 9 1 7 0;
#X connect 9 1 6 0;
#X connect 9 2 7 0;
#X coords 0 -1 1 1 145 17 1 250 100;
#X restore 192 316 pd ver;
#X obj 130 277 arduino 1;
#N canvas 649 518 411 212 firmware 0;
#X obj 123 2 inlet;
#X obj 250 100 cnv 15 145 17 empty \$0-firmware_cnv empty 4 10 0 12
-232576 -66577 0;
#X msg 123 156 label \$1;
#X obj 148 127 symbol;
#X obj 138 101 loadbang;
#X msg 196 102 bang;
#X obj 123 181 send \$0-firmware_cnv;
#X obj 123 24 route firmware;
#X obj 18 181 print Firmware;
#X obj 123 49 list;
#X obj 123 80 zexy/makesymbol %s-%s.%s;
#X obj 18 151 list trim;
#X obj 204 45 route bang;
#X connect 0 0 7 0;
#X connect 2 0 6 0;
#X connect 3 0 2 0;
#X connect 4 0 3 0;
#X connect 5 0 3 0;
#X connect 7 0 9 0;
#X connect 7 1 12 0;
#X connect 9 0 10 0;
#X connect 10 0 2 0;
#X connect 10 0 11 0;
#X connect 11 0 8 0;
#X connect 12 0 5 0;
#X coords 0 -1 1 1 145 17 1 250 100;
#X restore 192 338 pd firmware;
#N canvas 626 98 404 287 device 0;
#X obj 35 60 inlet;
#X obj 35 118 route open port ports;
#X obj 35 169 tgl 15 0 empty empty open -3 20 0 10 -262144 -1 -1 0
1;
#X floatatom 76 170 5 0 0 3 port - -;
#X obj 117 170 print comport_ports;
#X obj 252 170 outlet;
#X obj 235 74 receive ARDUINO_TEST_RESET;
#X obj 235 97 bang;
#X connect 0 0 1 0;
#X connect 1 0 2 0;
#X connect 1 1 3 0;
#X connect 1 2 4 0;
#X connect 1 3 5 0;
#X connect 6 0 7 0;
#X connect 7 0 5 0;
#X restore 192 294 pd device info;
#X obj 130 365 route analog digital string sysex;
#X msg -23 192 open 4;
#X obj 647 129 unpackOSC;
#X obj 678 163 print;
#X floatatom 647 239 5 0 0 0 - - -;
#X floatatom 795 238 5 0 0 0 - - -;
#X obj -21 26 import mrpeach;
#X floatatom 795 375 5 0 0 0 - - -;
#X msg 394 166 pinMode 6 servo;
#X msg 394 142 pinMode 5 servo;
#X msg 647 453 analog 5 \$1;
#X msg 795 453 analog 6 \$1;
#X obj 394 114 tgl 15 0 empty ARDUINO_TEST_RESET empty 0 -6 0 8 -225271
-1 -1 16383 16383;
#X obj 130 241 r analogIns;
#X floatatom 647 374 5 0 0 0 - - -;
#X obj 394 216 s pinservos;
#X obj 130 218 r pinservos;
#X obj 795 511 s servos;
#X obj 130 170 r servos;
#X obj 130 198 r pinmode;
#X obj 178 394 s DI;
#X obj 130 394 s AI;
#N canvas 0 22 450 300 STRING 0;
#X obj 48 13 inlet;
#X obj 51 93 moocow/string2any 32 -1;
#X obj 51 154 print STRING;
#X connect 0 0 1 0;
#X connect 1 0 2 0;
#X restore 227 395 pd STRING;
#N canvas 0 22 450 300 sysex 0;
#X obj 139 19 inlet;
#X obj 127 109 moocow/string2any 32 -1;
#X obj 127 170 print STRING;
#X obj 97 55 list split 1;
#X obj 40 109 print COMMAND;
#X obj 210 54 print sysex;
#X connect 0 0 3 0;
#X connect 0 0 5 0;
#X connect 1 0 2 0;
#X connect 3 0 4 0;
#X connect 3 1 1 0;
#X restore 295 396 pd sysex;
#X msg 1102 124 send /micro \$1;
#X msg 1155 180 connect 192.168.1.150 12000;
#X msg 1175 213 disconnect;
#X obj 1155 238 udpsend;
#X obj 1155 264 tgl 15 0 empty empty empty 17 7 0 10 -262144 -1 -1
0 1;
#X obj 1102 156 packOSC;
#X obj 1102 214 print;
#X floatatom 1102 100 5 0 0 0 - - -;
#X obj 1083 44 cnv 15 150 25 empty empty Enviar_OSC 20 12 0 18 -261682
-66577 0;
#X obj 646 44 cnv 15 350 25 empty empty Recibir_OSC_desde_el_Nodo_A
20 12 0 18 -260063 -66577 0;
#X text 752 97 PORT;
#X text 1204 158 IP REMOTE AND PORT;
#X obj -22 -26 cnv 15 340 40 empty empty INTACT_control_Servo_Cortinas
20 12 0 18 -134398 -66577 0;
#X floatatom 795 430 5 0 0 0 - - -;
#X floatatom 647 429 5 0 0 0 - - -;
#X obj 647 403 m_scale 1 0 0.8 0.1;
#X text 390 88 analog_servos;
#X obj 650 339 hsl 100 20 0 1 0 0 empty empty Servo_1_(Izquierdo) -2
-8 0 10 -4032 -1 -1 1800 1;
#X obj 798 338 hsl 100 20 0 1 0 0 empty empty Servo_2_(Derecho) -2
-8 0 10 -4032 -1 -1 7192 1;
#X obj 387 43 cnv 15 220 25 empty empty Activar_pines_5_6 20 12 0 18
-4032 -66577 0;
#X text 937 400 Escalar valores de entrada y salida;
#X obj 648 272 cnv 15 350 25 empty empty Movimiento_Servo_cortinas
20 12 0 18 -4032 -66577 0;
#X text 83 27 Importa libreria para enviar/recibir OSC;
#X text -22 128 Usa firmata Pduino.;
#X obj 647 99 udpreceive 5000;
#X obj 647 202 routeOSC /1/fader1 /1/fader2;
#X obj 795 401 m_scale 1 0 1 0;
#X connect 1 0 10 0;
#X connect 1 1 3 0;
#X connect 3 0 6 0;
#X connect 5 0 7 0;
#X connect 6 0 9 0;
#X connect 6 1 8 0;
#X connect 8 0 5 0;
#X connect 9 0 30 0;
#X connect 9 1 29 0;
#X connect 9 2 31 0;
#X connect 9 3 32 0;
#X connect 10 0 6 0;
#X connect 11 0 12 0;
#X connect 11 0 58 0;
#X connect 14 0 51 0;
#X connect 16 0 59 0;
#X connect 17 0 24 0;
#X connect 18 0 24 0;
#X connect 19 0 26 0;
#X connect 20 0 26 0;
#X connect 21 0 17 0;
#X connect 21 0 18 0;
#X connect 22 0 6 0;
#X connect 23 0 48 0;
#X connect 25 0 6 0;
#X connect 27 0 6 0;
#X connect 28 0 6 0;
#X connect 33 0 38 0;
#X connect 34 0 36 0;
#X connect 35 0 36 0;
#X connect 36 0 37 0;
#X connect 38 0 36 0;
#X connect 38 0 39 0;
#X connect 40 0 33 0;
#X connect 46 0 20 0;
#X connect 47 0 19 0;
#X connect 48 0 47 0;
#X connect 50 0 23 0;
#X connect 51 0 16 0;
#X connect 57 0 11 0;
#X connect 58 0 13 0;
#X connect 58 1 14 0;
#X connect 59 0 46 0;
