#N canvas 6 22 571 588 10;
#X obj 19 54 cnv 15 280 24 empty empty Receive 16 12 0 13 -10725 -262144
0;
#X obj 329 54 cnv 24 220 24 empty empty Send 16 12 0 13 -21733 -262144
0;
#X obj 78 118 bng 15 250 50 0 empty empty empty 17 7 0 10 -262144 -166078
-1;
#N canvas 214 23 686 816 receive 0;
#X obj 101 101 cnv 15 280 17 empty empty Digital 16 8 0 10 -10725 -262144
0;
#X obj 101 172 cnv 15 280 17 empty empty Pwm 16 8 0 10 -10725 -262144
0;
#X obj 193 212 bng 24 250 50 0 empty empty D3 2 -6 0 10 -27109 -105846
-1429;
#X obj 233 212 bng 24 250 50 0 empty empty D5 2 -6 0 10 -27109 -105846
-1429;
#X obj 273 212 bng 24 250 50 0 empty empty D6 2 -6 0 10 -27109 -105846
-1429;
#X obj 313 212 bng 24 250 50 0 empty empty D10 2 -6 0 10 -27109 -105846
-1429;
#X obj 102 69 OSCroute /pin7 /pin8 /pin3 /pin5 /pin6 /pin10;
#X obj 112 134 tgl 24 0 empty empty D7 2 -7 0 10 -2533 -262144 -1105
0 1;
#X obj 142 134 tgl 24 0 empty empty D8 2 -7 0 10 -2533 -262144 -1105
0 1;
#X obj 102 486 * 127;
#X obj 112 304 tgl 24 0 empty empty G7 2 -7 0 10 -54178 -262144 -54178
0 1;
#X obj 101 262 cnv 15 280 17 empty empty Midi 16 8 0 10 -54178 -262144
0;
#X obj 102 453 gate 1;
#X obj 102 508 ctlout 1 3;
#X obj 172 486 * 127;
#X obj 142 304 tgl 24 0 empty empty G8 2 -7 0 10 -54178 -262144 -54178
0 1;
#X obj 172 453 gate 1;
#X obj 242 486 * 127;
#X obj 202 304 tgl 24 0 empty empty G3 2 -7 0 10 -54178 -262144 -54178
0 1;
#X obj 242 453 gate 1;
#X obj 312 486 * 127;
#X obj 242 304 tgl 24 0 empty empty G5 2 -7 0 10 -54178 -262144 -54178
0 1;
#X obj 312 453 gate 1;
#X obj 382 486 * 127;
#X obj 282 304 tgl 24 0 empty empty G6 2 -7 0 10 -54178 -262144 -54178
0 1;
#X obj 382 453 gate 1;
#X obj 452 486 * 127;
#X obj 322 304 tgl 24 0 empty empty G10 2 -7 0 10 -54178 -262144 -54178
0 1;
#X obj 452 453 gate 1;
#X obj 172 508 ctlout 2 3;
#X obj 242 508 ctlout 3 3;
#X obj 312 508 ctlout 4 3;
#X obj 382 508 ctlout 5 3;
#X obj 452 508 ctlout 6 3;
#X obj 125 330 bng 10 250 50 0 empty empty empty 17 7 0 10 -54178 -262144
-1;
#X obj 155 330 bng 10 250 50 0 empty empty empty 17 7 0 10 -54178 -262144
-1;
#X obj 215 330 bng 10 250 50 0 empty empty empty 17 7 0 10 -54178 -262144
-1;
#X obj 255 330 bng 10 250 50 0 empty empty empty 17 7 0 10 -54178 -262144
-1;
#X obj 295 330 bng 10 250 50 0 empty empty empty 17 7 0 10 -54178 -262144
-1;
#X obj 335 330 bng 10 250 50 0 empty empty empty 17 7 0 10 -54178 -262144
-1;
#X floatatom 193 239 4 0 0 0 - - -;
#X floatatom 233 239 4 0 0 0 - - -;
#X floatatom 273 239 4 0 0 0 - - -;
#X floatatom 313 239 4 0 0 0 - - -;
#X obj 102 39 r ROSC1;
#X connect 6 0 7 0;
#X connect 6 1 8 0;
#X connect 6 2 2 0;
#X connect 6 2 40 0;
#X connect 6 3 3 0;
#X connect 6 3 41 0;
#X connect 6 4 4 0;
#X connect 6 4 42 0;
#X connect 6 5 5 0;
#X connect 6 5 43 0;
#X connect 7 0 12 1;
#X connect 8 0 16 1;
#X connect 9 0 13 0;
#X connect 9 0 34 0;
#X connect 10 0 12 0;
#X connect 12 0 9 0;
#X connect 14 0 29 0;
#X connect 14 0 35 0;
#X connect 15 0 16 0;
#X connect 16 0 14 0;
#X connect 17 0 30 0;
#X connect 17 0 36 0;
#X connect 18 0 19 0;
#X connect 19 0 17 0;
#X connect 20 0 31 0;
#X connect 20 0 37 0;
#X connect 21 0 22 0;
#X connect 22 0 20 0;
#X connect 23 0 32 0;
#X connect 23 0 38 0;
#X connect 24 0 25 0;
#X connect 25 0 23 0;
#X connect 26 0 33 0;
#X connect 26 0 39 0;
#X connect 27 0 28 0;
#X connect 28 0 26 0;
#X connect 40 0 19 1;
#X connect 41 0 22 1;
#X connect 42 0 25 1;
#X connect 43 0 28 1;
#X connect 44 0 6 0;
#X coords 0 -1 1 1 282 260 2 100 100;
#X restore 20 160 pd receive;
#N canvas 533 77 572 572 sending 0;
#X obj 121 120 tgl 25 0 empty empty T.osc2 -2 -8 0 10 -262144 -17637
-17637 0 1;
#X obj 171 120 tgl 25 0 empty empty T.osc4 -2 -8 0 10 -262144 -17637
-17637 0 1;
#X msg 251 492 disconnect;
#X msg 252 440 connect 192.168.0.255 5555;
#X msg 119 267 send /pin2 \$1;
#X obj 173 185 knob 32 32 0 1 0 0 empty empty knob1 0 -12 0 12 -17637
-17637 -17637 0 1;
#X obj 223 185 knob 32 32 0 1 0 0 empty empty knob2 0 -12 0 12 -17637
-17637 -17637 0 1;
#X obj 273 185 knob 32 32 0 1 0 0 empty empty knob3 0 -12 0 12 -17637
-17637 -17637 0 1;
#X obj 123 185 knob 32 32 0 1 0 0 empty empty knob0 0 -12 0 12 -17637
-17637 -17637 400 1;
#X msg 149 297 send /pin4 \$1;
#X msg 169 327 send /pin3 \$1;
#X msg 189 357 send /pin5 \$1;
#X msg 209 387 send /pin6 \$1;
#X msg 239 417 send /pin10 \$1;
#X msg 251 465 connect localhost 9001;
#X obj 116 509 s SOSC1;
#X connect 0 0 4 0;
#X connect 1 0 9 0;
#X connect 2 0 15 0;
#X connect 3 0 15 0;
#X connect 4 0 15 0;
#X connect 5 0 11 0;
#X connect 6 0 12 0;
#X connect 7 0 13 0;
#X connect 8 0 10 0;
#X connect 9 0 15 0;
#X connect 10 0 15 0;
#X connect 11 0 15 0;
#X connect 12 0 15 0;
#X connect 13 0 15 0;
#X connect 14 0 15 0;
#X coords 0 -1 1 1 220 260 2 100 100;
#X restore 329 163 pd sending;
#X obj 330 133 sendOSC;
#X msg 387 116 disconnect;
#X msg 387 99 connect localhost 9002;
#X obj 20 94 dumpOSC 9001;
#X obj 330 84 r SOSC1;
#X obj 20 117 s ROSC1;
#X obj 19 14 cnv 15 530 22 empty empty Arduino_N1 20 12 0 20 -262144
-2533 0;
#X msg 387 81 connect 25.18.9.59 9002;
#N canvas 434 347 665 339 logomedia 0;
#X obj 239 148 image logomedia.gif;
#X obj 150 136 knob 24 24 0 127 0 0 121 medialogo empty 0 -8 0 8 -262144
-245849 -1 797 1;
#X obj 396 239 s medialogo;
#X obj 396 216 counter 2 1 127;
#X obj 396 103 random 10;
#X obj 396 170 tgl 15 0 empty empty empty 17 7 0 10 -262144 -1 -1 1
1;
#X obj 396 190 metro 20;
#X msg 396 149 1;
#X obj 396 60 tgl 15 0 empty empty empty 17 7 0 10 -262144 -1 -1 1
1;
#X floatatom 477 123 5 0 0 0 - - -;
#X obj 396 127 moses 5;
#X msg 436 149 0;
#X obj 396 80 metro 200;
#X obj 396 18 loadbang;
#X msg 396 40 1;
#X obj 477 144 * 10;
#X floatatom 477 166 5 0 0 0 - - -;
#X obj 477 187 + 200;
#X connect 3 0 2 0;
#X connect 4 0 9 0;
#X connect 4 0 10 0;
#X connect 5 0 6 0;
#X connect 6 0 3 0;
#X connect 7 0 5 0;
#X connect 8 0 12 0;
#X connect 9 0 15 0;
#X connect 10 0 7 0;
#X connect 10 1 11 0;
#X connect 11 0 5 0;
#X connect 12 0 4 0;
#X connect 13 0 14 0;
#X connect 14 0 8 0;
#X connect 15 0 16 0;
#X connect 16 0 17 0;
#X connect 17 0 12 1;
#X coords 0 -1 1 1 280 100 2 100 100;
#X restore 19 433 pd logomedia;
#X connect 6 0 5 0;
#X connect 7 0 5 0;
#X connect 8 0 2 0;
#X connect 8 0 10 0;
#X connect 9 0 5 0;
#X connect 12 0 5 0;
