#N canvas 72 22 1144 654 10;
#X obj 89 234 hsl 60 15 0 127 0 0 empty empty empty -2 -8 0 10 -262144
-1 -1 0 1;
#X floatatom 86 288 5 0 0 0 - - -;
#X obj 86 309 int;
#X obj 248 85 route /arbol;
#X msg 557 358 1;
#X msg 587 358 0;
#X obj 557 390 * 127;
#X obj 557 412 ctlout 1 1;
#X floatatom 86 205 5 0 0 0 - - -;
#X floatatom 221 215 5 0 0 0 - - -;
#X floatatom 469 247 5 0 0 0 - - -;
#X text 246 35 arbol;
#X text 296 35 delay;
#X text 346 35 trigger;
#X obj 248 63 dumpOSC 8000;
#X floatatom 86 331 5 0 0 0 - - -;
#X obj 86 260 / 18.14;
#X obj 221 244 - 127;
#X floatatom 221 266 5 0 0 0 - - -;
#X obj 221 288 abs;
#X floatatom 221 314 5 0 0 0 - - -;
#X obj 221 337 ctlout 1 4;
#X obj 259 294 hsl 60 15 0 127 0 0 empty empty empty -2 -8 0 10 -262144
-1 -1 0 1;
#X obj 663 227 hsl 60 15 0 127 0 0 empty empty empty -2 -8 0 10 -262144
-1 -1 0 1;
#X text 406 35 arbol dimension;
#X floatatom 660 205 5 0 0 0 - - -;
#X obj 660 249 ctlout 5 1;
#X obj 557 269 > 124;
#X obj 557 314 bng 15 250 50 0 empty empty empty 17 7 0 10 -262144
-1 -1;
#X obj 557 291 sel 1;
#X obj 469 336 ctlout 2 1;
#X floatatom 469 282 5 0 0 0 - - -;
#X obj 85 177 gate 1;
#X obj 85 155 tgl 15 0 empty empty empty 17 7 0 10 -262144 -1 -1 1
1;
#X obj 221 189 gate 1;
#X obj 221 167 tgl 15 0 empty empty empty 17 7 0 10 -262144 -1 -1 1
1;
#X obj 470 207 gate 1;
#X obj 470 185 tgl 15 0 empty empty empty 17 7 0 10 -262144 -1 -1 1
1;
#X obj 660 177 gate 1;
#X obj 660 155 tgl 15 0 empty empty empty 17 7 0 10 -262144 -1 -1 1
1;
#X msg 865 542 59;
#X msg 905 542 74;
#X msg 945 542 75;
#X msg 985 542 76;
#X msg 1025 542 67;
#X msg 1065 542 68;
#X obj 784 459 sel 1 2 3 4 5;
#X obj 784 508 bng 15 250 50 0 empty empty empty 17 7 0 10 -262144
-1 -1;
#X obj 825 508 bng 15 250 50 0 empty empty empty 17 7 0 10 -262144
-1 -1;
#X obj 865 508 bng 15 250 50 0 empty empty empty 17 7 0 10 -262144
-1 -1;
#X obj 905 508 bng 15 250 50 0 empty empty empty 17 7 0 10 -262144
-1 -1;
#X obj 945 508 bng 15 250 50 0 empty empty empty 17 7 0 10 -262144
-1 -1;
#X obj 985 508 bng 15 250 50 0 empty empty empty 17 7 0 10 -262144
-1 -1;
#X obj 1025 508 bng 15 250 50 0 empty empty empty 17 7 0 10 -262144
-1 -1;
#X obj 1065 508 bng 15 250 50 0 empty empty empty 17 7 0 10 -262144
-1 -1;
#X floatatom 784 433 5 0 0 0 - - -;
#X obj 986 423 random 3;
#X obj 986 445 sel 0 1 2;
#X obj 986 401 bng 15 250 50 0 empty empty empty 17 7 0 10 -262144
-1 -1;
#X obj 1060 230 counter 1 8;
#X obj 1138 216 bng 15 250 50 0 empty empty empty 17 7 0 10 -262144
-1 -1;
#X obj 894 423 sel 1;
#X obj 894 447 bng 15 250 50 0 empty empty empty 17 7 0 10 -262144
-1 -1;
#X msg 1091 351 90;
#X obj 1060 269 bng 15 250 50 0 empty empty empty 17 7 0 10 -262144
-1 -1;
#X obj 1070 385 s vel;
#X obj 781 633 makenote 100 120;
#X obj 781 655 noteout;
#X obj 827 607 r vel;
#X obj 784 574 s alt;
#X obj 781 605 r alt;
#X obj 1138 166 tgl 15 0 empty empty empty 17 7 0 10 -262144 -1 -1
0 1;
#X obj 619 639 line;
#X obj 671 577 delay 200;
#X floatatom 619 661 5 0 0 0 - - -;
#X msg 619 578 127 0;
#X obj 619 544 sel 1;
#X obj 568 580 sel 0;
#X msg 568 602 0;
#X obj 619 687 ctlout 7 1;
#X obj 86 382 s numb;
#X obj 785 252 r numb;
#X obj 894 401 > 4;
#X obj 86 352 change;
#X msg 618 490 7;
#X obj 1138 191 metro 1000;
#X obj 1060 291 random 5;
#X obj 1060 313 sel 0 1 2 3 4;
#X msg 1157 350 92;
#X msg 1023 351 94;
#X msg 1121 351 95;
#X msg 1056 351 89;
#X msg 673 604 0 2010;
#X msg 784 542 44;
#X msg 825 542 58;
#X obj 619 522 == 6;
#X obj 617 35 bng 15 250 50 0 empty empty empty 17 7 0 10 -262144 -1
-1;
#X obj 617 91 s reset;
#X obj 503 358 r reset;
#X obj 498 307 r reset;
#X obj 680 643 r reset;
#X obj 168 258 r reset;
#X obj 603 222 r reset;
#X msg 602 60 127;
#X msg 647 55 0;
#X obj 318 379 * 127;
#X floatatom 318 401 5 0 0 0 - - -;
#X obj 318 426 ctlout 3 5;
#X floatatom 321 326 5 0 0 0 - - -;
#X obj 321 347 change;
#X text 301 488 arbol loops;
#X obj 248 107 unpack f f f f f f;
#X obj 373 369 * 127;
#X floatatom 373 394 5 0 0 0 - - -;
#X floatatom 373 281 5 0 0 0 - - -;
#X obj 373 426 ctlout 4 5;
#X obj 373 326 sel 1;
#X msg 373 349 0;
#X msg 403 349 1;
#X obj 373 302 change;
#X obj 744 42 key;
#X obj 744 64 sel 32;
#X obj 744 86 tgl 15 0 empty empty empty 17 7 0 10 -262144 -1 -1 1
1;
#X obj 744 106 s gate;
#X obj 87 102 r gate;
#X obj 194 125 r gate;
#X obj 464 114 r gate;
#X obj 591 124 r gate;
#X obj 0 155 print;
#X obj 276 201 hsl 60 15 0 127 0 0 empty empty empty -2 -8 0 10 -262144
-1 -1 0 1;
#X obj 99 514 dumpOSC 9600;
#X obj 99 536 print;
#X connect 0 0 16 0;
#X connect 1 0 2 0;
#X connect 2 0 15 0;
#X connect 3 0 111 0;
#X connect 4 0 6 0;
#X connect 5 0 6 0;
#X connect 6 0 7 0;
#X connect 8 0 0 0;
#X connect 9 0 17 0;
#X connect 10 0 31 0;
#X connect 10 0 27 0;
#X connect 14 0 3 0;
#X connect 14 0 128 0;
#X connect 15 0 83 0;
#X connect 16 0 1 0;
#X connect 17 0 18 0;
#X connect 18 0 19 0;
#X connect 19 0 20 0;
#X connect 20 0 21 0;
#X connect 22 0 21 0;
#X connect 23 0 26 0;
#X connect 25 0 23 0;
#X connect 27 0 29 0;
#X connect 28 0 4 0;
#X connect 28 0 5 0;
#X connect 29 0 28 0;
#X connect 31 0 30 0;
#X connect 32 0 8 0;
#X connect 33 0 32 0;
#X connect 34 0 9 0;
#X connect 35 0 34 0;
#X connect 36 0 10 0;
#X connect 37 0 36 0;
#X connect 38 0 25 0;
#X connect 39 0 38 0;
#X connect 40 0 69 0;
#X connect 41 0 69 0;
#X connect 42 0 69 0;
#X connect 43 0 69 0;
#X connect 44 0 69 0;
#X connect 45 0 69 0;
#X connect 46 0 47 0;
#X connect 46 1 48 0;
#X connect 46 2 49 0;
#X connect 46 3 50 0;
#X connect 46 4 51 0;
#X connect 47 0 93 0;
#X connect 48 0 94 0;
#X connect 49 0 40 0;
#X connect 50 0 41 0;
#X connect 51 0 42 0;
#X connect 52 0 43 0;
#X connect 53 0 44 0;
#X connect 54 0 45 0;
#X connect 55 0 46 0;
#X connect 55 0 82 0;
#X connect 55 0 95 0;
#X connect 56 0 57 0;
#X connect 57 0 52 0;
#X connect 57 1 53 0;
#X connect 57 2 54 0;
#X connect 58 0 56 0;
#X connect 59 0 55 0;
#X connect 59 0 64 0;
#X connect 60 0 59 0;
#X connect 61 0 62 0;
#X connect 62 0 58 0;
#X connect 63 0 65 0;
#X connect 64 0 86 0;
#X connect 66 0 67 0;
#X connect 66 1 67 1;
#X connect 68 0 66 1;
#X connect 70 0 66 0;
#X connect 71 0 85 0;
#X connect 72 0 74 0;
#X connect 73 0 92 0;
#X connect 74 0 79 0;
#X connect 75 0 72 0;
#X connect 76 0 75 0;
#X connect 76 0 73 0;
#X connect 76 0 77 0;
#X connect 77 0 78 0;
#X connect 78 0 74 0;
#X connect 81 0 55 0;
#X connect 81 0 64 0;
#X connect 82 0 61 0;
#X connect 83 0 80 0;
#X connect 84 0 95 0;
#X connect 85 0 60 0;
#X connect 86 0 87 0;
#X connect 87 0 89 0;
#X connect 87 1 91 0;
#X connect 87 2 63 0;
#X connect 87 3 90 0;
#X connect 87 4 88 0;
#X connect 88 0 65 0;
#X connect 89 0 65 0;
#X connect 90 0 65 0;
#X connect 91 0 65 0;
#X connect 92 0 72 0;
#X connect 93 0 69 0;
#X connect 94 0 69 0;
#X connect 95 0 76 0;
#X connect 96 0 103 0;
#X connect 96 0 104 0;
#X connect 98 0 7 0;
#X connect 99 0 30 0;
#X connect 100 0 79 0;
#X connect 101 0 21 0;
#X connect 102 0 26 0;
#X connect 103 0 97 0;
#X connect 104 0 97 0;
#X connect 105 0 106 0;
#X connect 106 0 107 0;
#X connect 108 0 109 0;
#X connect 109 0 105 0;
#X connect 111 0 32 1;
#X connect 111 1 34 1;
#X connect 111 2 36 1;
#X connect 111 3 38 1;
#X connect 111 4 108 0;
#X connect 111 5 114 0;
#X connect 112 0 113 0;
#X connect 113 0 115 0;
#X connect 114 0 119 0;
#X connect 116 0 117 0;
#X connect 116 0 118 0;
#X connect 117 0 112 0;
#X connect 118 0 112 0;
#X connect 119 0 116 0;
#X connect 120 0 121 0;
#X connect 121 0 122 0;
#X connect 122 0 123 0;
#X connect 124 0 33 0;
#X connect 125 0 35 0;
#X connect 126 0 37 0;
#X connect 127 0 39 0;
#X connect 129 0 9 0;
#X connect 130 0 131 0;
